<svg xmlns="http://www.w3.org/2000/svg" xmlns:xlink="http://www.w3.org/1999/xlink" width="500" zoomAndPan="magnify" viewBox="0 0 375 112.499997" height="150" preserveAspectRatio="xMidYMid meet" version="1.0"><defs><clipPath id="578acd4363"><path d="M 101.03125 52 L 131 52 L 131 65 L 101.03125 65 Z M 101.03125 52 " clip-rule="nonzero"/></clipPath><clipPath id="75c92350b6"><path d="M 197 4 L 274 4 L 274 108.222656 L 197 108.222656 Z M 197 4 " clip-rule="nonzero"/></clipPath><clipPath id="7b39f824ac"><path d="M 140 3.6875 L 259 3.6875 L 259 104 L 140 104 Z M 140 3.6875 " clip-rule="nonzero"/></clipPath></defs><g clip-path="url(#578acd4363)"><path fill="#f73772" d="M 130.644531 58.523438 C 130.644531 55.390625 128.105469 52.851562 124.972656 52.851562 L 106.703125 52.851562 C 103.574219 52.851562 101.035156 55.390625 101.035156 58.523438 C 101.035156 61.65625 103.574219 64.191406 106.703125 64.191406 L 124.972656 64.191406 C 128.105469 64.191406 130.644531 61.65625 130.644531 58.523438 " fill-opacity="1" fill-rule="nonzero"/></g><path fill="#f73772" d="M 143.226562 75.53125 L 132.605469 75.53125 C 129.476562 75.53125 126.9375 78.070312 126.9375 81.203125 C 126.9375 84.335938 129.476562 86.871094 132.605469 86.871094 L 143.226562 86.871094 C 146.355469 86.871094 148.894531 84.335938 148.894531 81.203125 C 148.894531 78.070312 146.355469 75.53125 143.226562 75.53125 " fill-opacity="1" fill-rule="nonzero"/><g clip-path="url(#75c92350b6)"><path fill="#ffc4d4" d="M 229.988281 4.371094 C 253.964844 16.875 264.664062 45.929688 253.902344 71.242188 C 244.335938 93.742188 220.878906 106.085938 197.769531 102.515625 C 204.933594 106.203125 213.054688 108.285156 221.664062 108.285156 C 250.542969 108.285156 273.953125 84.875 273.953125 55.996094 C 273.953125 29.949219 254.910156 8.355469 229.988281 4.371094 " fill-opacity="1" fill-rule="nonzero"/></g><g clip-path="url(#7b39f824ac)"><path fill="#f73772" d="M 218.097656 60.621094 C 207.78125 57.152344 200.746094 52.332031 200.746094 42.980469 C 200.746094 34.496094 206.71875 27.84375 217.039062 25.820312 L 217.039062 16.660156 L 226.484375 16.660156 L 226.484375 25.144531 C 232.945312 25.433594 237.285156 26.78125 240.464844 28.328125 L 237.671875 39.222656 C 235.164062 38.160156 230.726562 35.941406 223.785156 35.941406 C 217.519531 35.941406 215.496094 38.644531 215.496094 41.339844 C 215.496094 44.523438 218.871094 46.546875 227.066406 49.632812 C 238.535156 53.683594 243.164062 58.984375 243.164062 67.664062 C 243.164062 76.242188 237.089844 83.570312 226.003906 85.5 L 226.003906 95.332031 L 216.554688 95.332031 L 216.554688 86.171875 C 210.097656 85.882812 203.832031 84.148438 200.164062 82.027344 L 203.058594 70.75 C 207.105469 72.960938 212.796875 74.988281 219.0625 74.988281 C 224.558594 74.988281 228.316406 72.867188 228.316406 69.011719 C 228.316406 65.347656 225.230469 63.035156 218.097656 60.621094 Z M 253.902344 71.242188 C 264.664062 45.929688 253.964844 16.875 229.988281 4.371094 C 227.277344 3.9375 224.5 3.707031 221.664062 3.707031 C 207.324219 3.707031 194.339844 9.484375 184.890625 18.832031 L 191.394531 18.832031 C 194.527344 18.832031 197.0625 21.371094 197.0625 24.503906 C 197.0625 27.636719 194.527344 30.171875 191.394531 30.171875 L 157.984375 30.171875 C 154.851562 30.171875 152.3125 32.710938 152.3125 35.84375 C 152.3125 38.976562 154.851562 41.511719 157.984375 41.511719 L 179.78125 41.511719 C 182.914062 41.511719 185.453125 44.050781 185.453125 47.183594 C 185.453125 50.3125 182.914062 52.851562 179.78125 52.851562 L 146.371094 52.851562 C 143.238281 52.851562 140.699219 55.390625 140.699219 58.523438 C 140.699219 61.65625 143.238281 64.191406 146.371094 64.191406 L 185.75 64.191406 C 188.882812 64.191406 191.421875 66.730469 191.421875 69.863281 C 191.421875 72.992188 188.882812 75.53125 185.75 75.53125 L 161.511719 75.53125 C 158.382812 75.53125 155.84375 78.070312 155.84375 81.203125 C 155.84375 84.335938 158.382812 86.871094 161.511719 86.871094 L 179.464844 86.871094 C 184.25 93.402344 190.519531 98.78125 197.769531 102.515625 C 220.878906 106.085938 244.335938 93.742188 253.902344 71.242188 " fill-opacity="1" fill-rule="nonzero"/></g></svg>