<svg xmlns="http://www.w3.org/2000/svg" xmlns:xlink="http://www.w3.org/1999/xlink" width="500" zoomAndPan="magnify" viewBox="0 0 375 112.499997" height="150" preserveAspectRatio="xMidYMid meet" version="1.0"><defs><g/><clipPath id="a31817cb7e"><path d="M 3.542969 54 L 22 54 L 22 61 L 3.542969 61 Z M 3.542969 54 " clip-rule="nonzero"/></clipPath><clipPath id="29bacb9f37"><path d="M 61 25 L 106.585938 25 L 106.585938 87.449219 L 61 87.449219 Z M 61 25 " clip-rule="nonzero"/></clipPath><clipPath id="b92562da63"><path d="M 27 24.726562 L 98 24.726562 L 98 85 L 27 85 Z M 27 24.726562 " clip-rule="nonzero"/></clipPath></defs><g clip-path="url(#a31817cb7e)"><path fill="#f73772" d="M 21.246094 57.511719 C 21.246094 55.640625 19.726562 54.121094 17.855469 54.121094 L 6.933594 54.121094 C 5.0625 54.121094 3.542969 55.640625 3.542969 57.511719 C 3.542969 59.382812 5.0625 60.902344 6.933594 60.902344 L 17.855469 60.902344 C 19.726562 60.902344 21.246094 59.382812 21.246094 57.511719 " fill-opacity="1" fill-rule="nonzero"/></g><path fill="#f73772" d="M 28.769531 67.679688 L 22.417969 67.679688 C 20.546875 67.679688 19.03125 69.195312 19.03125 71.070312 C 19.03125 72.941406 20.546875 74.460938 22.417969 74.460938 L 28.769531 74.460938 C 30.640625 74.460938 32.15625 72.941406 32.15625 71.070312 C 32.15625 69.195312 30.640625 67.679688 28.769531 67.679688 " fill-opacity="1" fill-rule="nonzero"/><g clip-path="url(#29bacb9f37)"><path fill="#ffc4d4" d="M 80.636719 25.136719 C 94.96875 32.613281 101.367188 49.980469 94.933594 65.113281 C 89.214844 78.566406 75.191406 85.945312 61.375 83.8125 C 65.660156 86.015625 70.515625 87.261719 75.660156 87.261719 C 92.925781 87.261719 106.921875 73.265625 106.921875 56 C 106.921875 40.429688 95.535156 27.519531 80.636719 25.136719 " fill-opacity="1" fill-rule="nonzero"/></g><g clip-path="url(#b92562da63)"><path fill="#f73772" d="M 73.527344 58.765625 C 67.359375 56.691406 63.152344 53.808594 63.152344 48.21875 C 63.152344 43.148438 66.726562 39.171875 72.894531 37.960938 L 72.894531 32.484375 L 78.542969 32.484375 L 78.542969 37.558594 C 82.40625 37.730469 85 38.535156 86.902344 39.457031 L 85.230469 45.972656 C 83.730469 45.339844 81.078125 44.011719 76.929688 44.011719 C 73.183594 44.011719 71.972656 45.625 71.972656 47.238281 C 71.972656 49.140625 73.988281 50.351562 78.890625 52.195312 C 85.746094 54.617188 88.515625 57.789062 88.515625 62.976562 C 88.515625 68.105469 84.882812 72.484375 78.253906 73.636719 L 78.253906 79.515625 L 72.605469 79.515625 L 72.605469 74.039062 C 68.746094 73.867188 65 72.832031 62.808594 71.5625 L 64.539062 64.820312 C 66.957031 66.144531 70.359375 67.355469 74.105469 67.355469 C 77.390625 67.355469 79.636719 66.085938 79.636719 63.78125 C 79.636719 61.589844 77.792969 60.207031 73.527344 58.765625 Z M 94.933594 65.113281 C 101.367188 49.980469 94.96875 32.613281 80.636719 25.136719 C 79.015625 24.878906 77.355469 24.742188 75.660156 24.742188 C 67.085938 24.742188 59.324219 28.195312 53.675781 33.785156 L 57.566406 33.785156 C 59.4375 33.785156 60.953125 35.300781 60.953125 37.175781 C 60.953125 39.046875 59.4375 40.5625 57.566406 40.5625 L 37.589844 40.5625 C 35.71875 40.5625 34.199219 42.082031 34.199219 43.953125 C 34.199219 45.824219 35.71875 47.34375 37.589844 47.34375 L 50.621094 47.34375 C 52.496094 47.34375 54.011719 48.859375 54.011719 50.730469 C 54.011719 52.601562 52.496094 54.121094 50.621094 54.121094 L 30.648438 54.121094 C 28.777344 54.121094 27.257812 55.640625 27.257812 57.511719 C 27.257812 59.382812 28.777344 60.902344 30.648438 60.902344 L 43.265625 60.902344 C 43.269531 60.902344 43.269531 60.902344 43.269531 60.902344 L 54.191406 60.902344 C 56.0625 60.902344 57.582031 62.417969 57.582031 64.289062 C 57.582031 66.164062 56.0625 67.679688 54.191406 67.679688 L 39.699219 67.679688 C 37.828125 67.679688 36.308594 69.195312 36.308594 71.070312 C 36.308594 72.941406 37.828125 74.460938 39.699219 74.460938 L 50.433594 74.460938 C 53.292969 78.363281 57.042969 81.578125 61.375 83.8125 C 75.191406 85.945312 89.214844 78.566406 94.933594 65.113281 " fill-opacity="1" fill-rule="nonzero"/></g><g fill="#2c3a4d" fill-opacity="1"><g transform="translate(109.113055, 68.321345)"><g><path d="M 20.6875 -12.609375 C 22.070312 -12.171875 23.15625 -11.4375 23.9375 -10.40625 C 24.726562 -9.382812 25.125 -8.125 25.125 -6.625 C 25.125 -4.5 24.296875 -2.863281 22.640625 -1.71875 C 20.992188 -0.570312 18.585938 0 15.421875 0 L 2.875 0 L 2.875 -24.265625 L 14.734375 -24.265625 C 17.691406 -24.265625 19.957031 -23.695312 21.53125 -22.5625 C 23.113281 -21.425781 23.90625 -19.890625 23.90625 -17.953125 C 23.90625 -16.773438 23.625 -15.722656 23.0625 -14.796875 C 22.5 -13.867188 21.707031 -13.140625 20.6875 -12.609375 Z M 8.453125 -20.03125 L 8.453125 -14.3125 L 14.03125 -14.3125 C 15.414062 -14.3125 16.46875 -14.550781 17.1875 -15.03125 C 17.90625 -15.519531 18.265625 -16.238281 18.265625 -17.1875 C 18.265625 -18.132812 17.90625 -18.84375 17.1875 -19.3125 C 16.46875 -19.789062 15.414062 -20.03125 14.03125 -20.03125 Z M 15 -4.234375 C 16.476562 -4.234375 17.59375 -4.472656 18.34375 -4.953125 C 19.101562 -5.441406 19.484375 -6.191406 19.484375 -7.203125 C 19.484375 -9.210938 17.988281 -10.21875 15 -10.21875 L 8.453125 -10.21875 L 8.453125 -4.234375 Z M 15 -4.234375 "/></g></g></g><g fill="#2c3a4d" fill-opacity="1"><g transform="translate(138.220161, 68.321345)"><g><path d="M 21.65625 -4.5 L 21.65625 0 L 2.875 0 L 2.875 -24.265625 L 21.203125 -24.265625 L 21.203125 -19.75 L 8.453125 -19.75 L 8.453125 -14.484375 L 19.71875 -14.484375 L 19.71875 -10.125 L 8.453125 -10.125 L 8.453125 -4.5 Z M 21.65625 -4.5 "/></g></g></g><g fill="#2c3a4d" fill-opacity="1"><g transform="translate(164.070107, 68.321345)"><g><path d="M 2.875 -24.265625 L 8.484375 -24.265625 L 8.484375 -4.578125 L 20.65625 -4.578125 L 20.65625 0 L 2.875 0 Z M 2.875 -24.265625 "/></g></g></g><g fill="#2c3a4d" fill-opacity="1"><g transform="translate(187.598454, 68.321345)"><g><path d="M 2.875 -24.265625 L 8.484375 -24.265625 L 8.484375 -4.578125 L 20.65625 -4.578125 L 20.65625 0 L 2.875 0 Z M 2.875 -24.265625 "/></g></g></g><g fill="#2c3a4d" fill-opacity="1"><g transform="translate(211.126801, 68.321345)"><g><path d="M 18.859375 -5.203125 L 7.59375 -5.203125 L 5.4375 0 L -0.3125 0 L 10.5 -24.265625 L 16.046875 -24.265625 L 26.890625 0 L 21 0 Z M 17.078125 -9.46875 L 13.234375 -18.75 L 9.390625 -9.46875 Z M 17.078125 -9.46875 "/></g></g></g><g fill="#2c3a4d" fill-opacity="1"><g transform="translate(240.268554, 68.321345)"><g><path d="M 14.484375 0.421875 C 12.015625 0.421875 9.78125 -0.113281 7.78125 -1.1875 C 5.78125 -2.269531 4.207031 -3.765625 3.0625 -5.671875 C 1.925781 -7.578125 1.359375 -9.726562 1.359375 -12.125 C 1.359375 -14.53125 1.925781 -16.6875 3.0625 -18.59375 C 4.207031 -20.5 5.78125 -21.988281 7.78125 -23.0625 C 9.78125 -24.132812 12.023438 -24.671875 14.515625 -24.671875 C 16.617188 -24.671875 18.519531 -24.300781 20.21875 -23.5625 C 21.914062 -22.820312 23.34375 -21.757812 24.5 -20.375 L 20.890625 -17.046875 C 19.253906 -18.941406 17.222656 -19.890625 14.796875 -19.890625 C 13.296875 -19.890625 11.957031 -19.5625 10.78125 -18.90625 C 9.601562 -18.25 8.679688 -17.328125 8.015625 -16.140625 C 7.359375 -14.960938 7.03125 -13.625 7.03125 -12.125 C 7.03125 -10.625 7.359375 -9.285156 8.015625 -8.109375 C 8.679688 -6.929688 9.601562 -6.007812 10.78125 -5.34375 C 11.957031 -4.6875 13.296875 -4.359375 14.796875 -4.359375 C 17.222656 -4.359375 19.253906 -5.320312 20.890625 -7.25 L 24.5 -3.921875 C 23.34375 -2.503906 21.910156 -1.425781 20.203125 -0.6875 C 18.492188 0.0507812 16.585938 0.421875 14.484375 0.421875 Z M 14.484375 0.421875 "/></g></g></g><g fill="#2c3a4d" fill-opacity="1"><g transform="translate(268.266839, 68.321345)"><g><path d="M 21.65625 -4.5 L 21.65625 0 L 2.875 0 L 2.875 -24.265625 L 21.203125 -24.265625 L 21.203125 -19.75 L 8.453125 -19.75 L 8.453125 -14.484375 L 19.71875 -14.484375 L 19.71875 -10.125 L 8.453125 -10.125 L 8.453125 -4.5 Z M 21.65625 -4.5 "/></g></g></g><g fill="#2c3a4d" fill-opacity="1"><g transform="translate(294.116784, 68.321345)"><g><path d="M 25.125 -24.265625 L 25.125 0 L 20.515625 0 L 8.421875 -14.734375 L 8.421875 0 L 2.875 0 L 2.875 -24.265625 L 7.515625 -24.265625 L 19.578125 -9.53125 L 19.578125 -24.265625 Z M 25.125 -24.265625 "/></g></g></g><g fill="#2c3a4d" fill-opacity="1"><g transform="translate(324.713881, 68.321345)"><g><path d="M 7.90625 -19.6875 L 0.140625 -19.6875 L 0.140625 -24.265625 L 21.28125 -24.265625 L 21.28125 -19.6875 L 13.515625 -19.6875 L 13.515625 0 L 7.90625 0 Z M 7.90625 -19.6875 "/></g></g></g><g fill="#2c3a4d" fill-opacity="1"><g transform="translate(348.727338, 68.321345)"><g><path d="M 10.84375 0.421875 C 8.925781 0.421875 7.070312 0.160156 5.28125 -0.359375 C 3.488281 -0.878906 2.050781 -1.554688 0.96875 -2.390625 L 2.875 -6.625 C 3.914062 -5.851562 5.148438 -5.238281 6.578125 -4.78125 C 8.015625 -4.320312 9.445312 -4.09375 10.875 -4.09375 C 12.46875 -4.09375 13.644531 -4.328125 14.40625 -4.796875 C 15.175781 -5.273438 15.5625 -5.90625 15.5625 -6.6875 C 15.5625 -7.269531 15.332031 -7.75 14.875 -8.125 C 14.425781 -8.507812 13.847656 -8.816406 13.140625 -9.046875 C 12.441406 -9.273438 11.492188 -9.53125 10.296875 -9.8125 C 8.441406 -10.25 6.925781 -10.6875 5.75 -11.125 C 4.570312 -11.5625 3.5625 -12.265625 2.71875 -13.234375 C 1.875 -14.203125 1.453125 -15.5 1.453125 -17.125 C 1.453125 -18.53125 1.832031 -19.804688 2.59375 -20.953125 C 3.363281 -22.097656 4.515625 -23.003906 6.046875 -23.671875 C 7.585938 -24.335938 9.460938 -24.671875 11.671875 -24.671875 C 13.222656 -24.671875 14.738281 -24.484375 16.21875 -24.109375 C 17.695312 -23.742188 18.988281 -23.21875 20.09375 -22.53125 L 18.375 -18.265625 C 16.125 -19.535156 13.878906 -20.171875 11.640625 -20.171875 C 10.066406 -20.171875 8.90625 -19.914062 8.15625 -19.40625 C 7.40625 -18.894531 7.03125 -18.222656 7.03125 -17.390625 C 7.03125 -16.566406 7.460938 -15.953125 8.328125 -15.546875 C 9.203125 -15.140625 10.523438 -14.738281 12.296875 -14.34375 C 14.148438 -13.90625 15.664062 -13.46875 16.84375 -13.03125 C 18.019531 -12.59375 19.03125 -11.898438 19.875 -10.953125 C 20.71875 -10.003906 21.140625 -8.722656 21.140625 -7.109375 C 21.140625 -5.722656 20.75 -4.457031 19.96875 -3.3125 C 19.195312 -2.164062 18.035156 -1.253906 16.484375 -0.578125 C 14.941406 0.0859375 13.0625 0.421875 10.84375 0.421875 Z M 10.84375 0.421875 "/></g></g></g><g fill="#2c3a4d" fill-opacity="1"><g transform="translate(117.397841, 83.610695)"><g><path d="M 1.265625 0 L 1.265625 -7.890625 L 5.921875 -7.890625 L 5.921875 -7.25 L 1.953125 -7.25 L 1.953125 -4.34375 L 5.625 -4.34375 L 5.625 -3.703125 L 1.953125 -3.703125 L 1.953125 -0.640625 L 6.03125 -0.640625 L 6.03125 0 Z M 1.265625 0 "/></g></g></g><g fill="#2c3a4d" fill-opacity="1"><g transform="translate(133.277795, 83.610695)"><g><path d="M 0.5 0 L 3.40625 -4.03125 L 0.625 -7.890625 L 1.4375 -7.890625 L 3.203125 -5.4375 L 3.84375 -4.546875 L 4.46875 -5.4375 L 6.234375 -7.890625 L 7.046875 -7.890625 L 4.265625 -4.03125 L 7.171875 0 L 6.359375 0 L 4.453125 -2.640625 L 3.84375 -3.5 L 3.21875 -2.640625 L 1.3125 0 Z M 0.5 0 "/></g></g></g><g fill="#2c3a4d" fill-opacity="1"><g transform="translate(149.968974, 83.610695)"><g><path d="M 1.265625 0 L 1.265625 -7.890625 L 3.78125 -7.890625 C 4.6875 -7.890625 5.394531 -7.660156 5.90625 -7.203125 C 6.425781 -6.742188 6.6875 -6.109375 6.6875 -5.296875 C 6.6875 -4.472656 6.425781 -3.832031 5.90625 -3.375 C 5.394531 -2.925781 4.6875 -2.703125 3.78125 -2.703125 L 1.953125 -2.703125 L 1.953125 0 Z M 1.953125 -3.328125 L 3.765625 -3.328125 C 5.253906 -3.328125 6 -3.976562 6 -5.28125 C 6 -6.582031 5.253906 -7.234375 3.765625 -7.234375 L 1.953125 -7.234375 Z M 1.953125 -3.328125 "/></g></g></g><g fill="#2c3a4d" fill-opacity="1"><g transform="translate(166.198203, 83.610695)"><g><path d="M 1.265625 0 L 1.265625 -7.890625 L 5.921875 -7.890625 L 5.921875 -7.25 L 1.953125 -7.25 L 1.953125 -4.34375 L 5.625 -4.34375 L 5.625 -3.703125 L 1.953125 -3.703125 L 1.953125 -0.640625 L 6.03125 -0.640625 L 6.03125 0 Z M 1.265625 0 "/></g></g></g><g fill="#2c3a4d" fill-opacity="1"><g transform="translate(182.078159, 83.610695)"><g><path d="M 1.265625 0 L 1.265625 -7.890625 L 1.921875 -7.890625 L 6.71875 -1.1875 L 6.71875 -7.890625 L 7.390625 -7.890625 L 7.390625 0 L 6.75 0 L 1.953125 -6.71875 L 1.953125 0 Z M 1.265625 0 "/></g></g></g><g fill="#2c3a4d" fill-opacity="1"><g transform="translate(199.760827, 83.610695)"><g><path d="M 3.8125 0.140625 C 3.207031 0.140625 2.679688 0.0390625 2.234375 -0.15625 C 1.785156 -0.363281 1.4375 -0.65625 1.1875 -1.03125 C 0.945312 -1.40625 0.8125 -1.84375 0.78125 -2.34375 L 1.46875 -2.34375 C 1.5 -1.757812 1.722656 -1.304688 2.140625 -0.984375 C 2.566406 -0.660156 3.125 -0.5 3.8125 -0.5 C 4.457031 -0.5 4.96875 -0.632812 5.34375 -0.90625 C 5.71875 -1.175781 5.90625 -1.539062 5.90625 -2 C 5.90625 -2.40625 5.726562 -2.738281 5.375 -3 C 5.03125 -3.257812 4.460938 -3.476562 3.671875 -3.65625 C 2.703125 -3.875 2 -4.160156 1.5625 -4.515625 C 1.125 -4.867188 0.90625 -5.34375 0.90625 -5.9375 C 0.90625 -6.570312 1.144531 -7.078125 1.625 -7.453125 C 2.113281 -7.835938 2.773438 -8.03125 3.609375 -8.03125 C 4.484375 -8.03125 5.171875 -7.816406 5.671875 -7.390625 C 6.171875 -6.972656 6.4375 -6.382812 6.46875 -5.625 L 5.796875 -5.625 C 5.765625 -6.1875 5.554688 -6.617188 5.171875 -6.921875 C 4.796875 -7.222656 4.273438 -7.375 3.609375 -7.375 C 2.972656 -7.375 2.476562 -7.242188 2.125 -6.984375 C 1.769531 -6.722656 1.59375 -6.375 1.59375 -5.9375 C 1.59375 -5.539062 1.757812 -5.210938 2.09375 -4.953125 C 2.4375 -4.703125 3.019531 -4.484375 3.84375 -4.296875 C 4.84375 -4.054688 5.550781 -3.753906 5.96875 -3.390625 C 6.394531 -3.023438 6.609375 -2.5625 6.609375 -2 C 6.609375 -1.34375 6.351562 -0.820312 5.84375 -0.4375 C 5.34375 -0.0507812 4.664062 0.140625 3.8125 0.140625 Z M 3.8125 0.140625 "/></g></g></g><g fill="#2c3a4d" fill-opacity="1"><g transform="translate(216.181591, 83.610695)"><g><path d="M 1.265625 0 L 1.265625 -7.890625 L 5.921875 -7.890625 L 5.921875 -7.25 L 1.953125 -7.25 L 1.953125 -4.34375 L 5.625 -4.34375 L 5.625 -3.703125 L 1.953125 -3.703125 L 1.953125 -0.640625 L 6.03125 -0.640625 L 6.03125 0 Z M 1.265625 0 "/></g></g></g><g fill="#2c3a4d" fill-opacity="1"><g transform="translate(232.061547, 83.610695)"><g/></g></g><g fill="#2c3a4d" fill-opacity="1"><g transform="translate(244.09948, 83.610695)"><g><path d="M 3.140625 0 L 3.140625 -7.234375 L 0.421875 -7.234375 L 0.421875 -7.890625 L 6.546875 -7.890625 L 6.546875 -7.234375 L 3.8125 -7.234375 L 3.8125 0 Z M 3.140625 0 "/></g></g></g><g fill="#2c3a4d" fill-opacity="1"><g transform="translate(260.092102, 83.610695)"><g><path d="M 1.265625 0 L 1.265625 -7.890625 L 4.1875 -7.890625 C 4.71875 -7.890625 5.175781 -7.785156 5.5625 -7.578125 C 5.957031 -7.378906 6.265625 -7.097656 6.484375 -6.734375 C 6.703125 -6.367188 6.8125 -5.9375 6.8125 -5.4375 C 6.8125 -4.78125 6.628906 -4.238281 6.265625 -3.8125 C 5.910156 -3.382812 5.421875 -3.117188 4.796875 -3.015625 L 6.9375 0 L 6.109375 0 L 4 -2.96875 L 1.953125 -2.96875 L 1.953125 0 Z M 1.953125 -3.609375 L 4.125 -3.609375 C 4.75 -3.609375 5.234375 -3.769531 5.578125 -4.09375 C 5.929688 -4.414062 6.109375 -4.863281 6.109375 -5.4375 C 6.109375 -5.988281 5.929688 -6.425781 5.578125 -6.75 C 5.234375 -7.070312 4.75 -7.234375 4.125 -7.234375 L 1.953125 -7.234375 Z M 1.953125 -3.609375 "/></g></g></g><g fill="#2c3a4d" fill-opacity="1"><g transform="translate(276.817077, 83.610695)"><g><path d="M 0.25 0 L 3.515625 -7.890625 L 4.171875 -7.890625 L 7.4375 0 L 6.71875 0 L 5.890625 -1.984375 L 1.796875 -1.984375 L 0.984375 0 Z M 2.0625 -2.609375 L 5.625 -2.609375 L 3.84375 -6.953125 Z M 2.0625 -2.609375 "/></g></g></g><g fill="#2c3a4d" fill-opacity="1"><g transform="translate(293.530781, 83.610695)"><g><path d="M 4.71875 0.140625 C 3.945312 0.140625 3.257812 -0.03125 2.65625 -0.375 C 2.050781 -0.726562 1.578125 -1.210938 1.234375 -1.828125 C 0.890625 -2.441406 0.71875 -3.144531 0.71875 -3.9375 C 0.71875 -4.738281 0.890625 -5.445312 1.234375 -6.0625 C 1.578125 -6.675781 2.050781 -7.15625 2.65625 -7.5 C 3.257812 -7.851562 3.945312 -8.03125 4.71875 -8.03125 C 5.320312 -8.03125 5.878906 -7.921875 6.390625 -7.703125 C 6.898438 -7.484375 7.335938 -7.171875 7.703125 -6.765625 C 8.066406 -6.359375 8.335938 -5.878906 8.515625 -5.328125 L 7.796875 -5.328125 C 7.566406 -5.953125 7.175781 -6.441406 6.625 -6.796875 C 6.082031 -7.160156 5.453125 -7.34375 4.734375 -7.34375 C 4.097656 -7.34375 3.53125 -7.195312 3.03125 -6.90625 C 2.53125 -6.625 2.132812 -6.226562 1.84375 -5.71875 C 1.5625 -5.207031 1.421875 -4.613281 1.421875 -3.9375 C 1.421875 -3.269531 1.5625 -2.675781 1.84375 -2.15625 C 2.132812 -1.644531 2.53125 -1.25 3.03125 -0.96875 C 3.53125 -0.6875 4.097656 -0.546875 4.734375 -0.546875 C 5.460938 -0.546875 6.109375 -0.734375 6.671875 -1.109375 C 7.242188 -1.484375 7.640625 -1.992188 7.859375 -2.640625 L 8.578125 -2.640625 C 8.421875 -2.078125 8.15625 -1.585938 7.78125 -1.171875 C 7.40625 -0.753906 6.957031 -0.429688 6.4375 -0.203125 C 5.914062 0.0234375 5.34375 0.140625 4.71875 0.140625 Z M 4.71875 0.140625 "/></g></g></g><g fill="#2c3a4d" fill-opacity="1"><g transform="translate(311.810583, 83.610695)"><g><path d="M 1.265625 0 L 1.265625 -7.890625 L 1.953125 -7.890625 L 1.953125 -4.34375 L 3.203125 -4.34375 C 3.828125 -4.34375 4.289062 -4.445312 4.59375 -4.65625 C 4.894531 -4.875 5.132812 -5.21875 5.3125 -5.6875 L 6.15625 -7.890625 L 6.875 -7.890625 L 5.921875 -5.421875 C 5.804688 -5.097656 5.660156 -4.820312 5.484375 -4.59375 C 5.316406 -4.375 5.101562 -4.191406 4.84375 -4.046875 L 7.203125 0 L 6.40625 0 L 4.21875 -3.796875 C 3.9375 -3.722656 3.597656 -3.6875 3.203125 -3.6875 L 1.953125 -3.6875 L 1.953125 0 Z M 1.265625 0 "/></g></g></g><g fill="#2c3a4d" fill-opacity="1"><g transform="translate(328.513016, 83.610695)"><g><path d="M 1.265625 0 L 1.265625 -7.890625 L 5.921875 -7.890625 L 5.921875 -7.25 L 1.953125 -7.25 L 1.953125 -4.34375 L 5.625 -4.34375 L 5.625 -3.703125 L 1.953125 -3.703125 L 1.953125 -0.640625 L 6.03125 -0.640625 L 6.03125 0 Z M 1.265625 0 "/></g></g></g><g fill="#2c3a4d" fill-opacity="1"><g transform="translate(344.392965, 83.610695)"><g><path d="M 1.265625 0 L 1.265625 -7.890625 L 4.1875 -7.890625 C 4.71875 -7.890625 5.175781 -7.785156 5.5625 -7.578125 C 5.957031 -7.378906 6.265625 -7.097656 6.484375 -6.734375 C 6.703125 -6.367188 6.8125 -5.9375 6.8125 -5.4375 C 6.8125 -4.78125 6.628906 -4.238281 6.265625 -3.8125 C 5.910156 -3.382812 5.421875 -3.117188 4.796875 -3.015625 L 6.9375 0 L 6.109375 0 L 4 -2.96875 L 1.953125 -2.96875 L 1.953125 0 Z M 1.953125 -3.609375 L 4.125 -3.609375 C 4.75 -3.609375 5.234375 -3.769531 5.578125 -4.09375 C 5.929688 -4.414062 6.109375 -4.863281 6.109375 -5.4375 C 6.109375 -5.988281 5.929688 -6.425781 5.578125 -6.75 C 5.234375 -7.070312 4.75 -7.234375 4.125 -7.234375 L 1.953125 -7.234375 Z M 1.953125 -3.609375 "/></g></g></g></svg>